<svg width="103" height="52" viewBox="0 0 103 52" fill="none" xmlns="http://www.w3.org/2000/svg">
<mask id="mask0_34_2" style="mask-type:luminance" maskUnits="userSpaceOnUse" x="33" y="0" width="23" height="12">
<path d="M53.59 5.49001V7.09001L48.2801 0.290009L33.6801 9.57001V11.67L48.1501 3.14001L55.0601 11.36V6.90001L53.59 5.49001Z" fill="white"/>
</mask>
<g mask="url(#mask0_34_2)">
<path d="M55.0701 0.290009H33.6801V11.67H55.0701V0.290009Z" fill="url(#paint0_linear_34_2)"/>
</g>
<mask id="mask1_34_2" style="mask-type:luminance" maskUnits="userSpaceOnUse" x="33" y="5" width="23" height="11">
<path d="M33.68 13.9L48.4 5.98001L55.06 14.01V15.74L48.15 8.33001L33.67 16L33.68 13.9Z" fill="white"/>
</mask>
<g mask="url(#mask1_34_2)">
<path d="M55.06 5.98001H33.67V16H55.06V5.98001Z" fill="url(#paint1_linear_34_2)"/>
</g>
<mask id="mask2_34_2" style="mask-type:luminance" maskUnits="userSpaceOnUse" x="33" y="11" width="23" height="9">
<path d="M55.0601 18.72L48.6501 11.05L33.6801 18.23V19.84L48.1501 13.4L55.0601 19.84V18.72Z" fill="white"/>
</mask>
<g mask="url(#mask2_34_2)">
<path d="M55.0701 11.05H33.6801V19.83H55.0701V11.05Z" fill="url(#paint2_linear_34_2)"/>
</g>
<mask id="mask3_34_2" style="mask-type:luminance" maskUnits="userSpaceOnUse" x="33" y="16" width="23" height="8">
<path d="M55.1101 23.92V22.68L48.4001 16L33.6801 22.56V23.92L48.1501 18.48L55.1101 23.92Z" fill="white"/>
</mask>
<g mask="url(#mask3_34_2)">
<path d="M55.1101 16H33.6801V23.92H55.1101V16Z" fill="url(#paint3_linear_34_2)"/>
</g>
<mask id="mask4_34_2" style="mask-type:luminance" maskUnits="userSpaceOnUse" x="33" y="19" width="23" height="10">
<path d="M55.0601 27.14L48.4001 19.96L33.6801 26.76V28.25L48.1501 22.44L55.0701 27.75L55.0601 27.14Z" fill="white"/>
</mask>
<g mask="url(#mask4_34_2)">
<path d="M55.0701 19.96H33.6801V28.25H55.0701V19.96Z" fill="url(#paint4_linear_34_2)"/>
</g>
<mask id="mask5_34_2" style="mask-type:luminance" maskUnits="userSpaceOnUse" x="33" y="25" width="23" height="8">
<path d="M55.1101 32.33V31.09L48.4001 25.28L33.6801 31.09V32.33L48.2801 27.75L55.1101 32.33Z" fill="white"/>
</mask>
<g mask="url(#mask5_34_2)">
<path d="M55.1101 25.28H33.6801V32.33H55.1101V25.28Z" fill="url(#paint5_linear_34_2)"/>
</g>
<mask id="mask6_34_2" style="mask-type:luminance" maskUnits="userSpaceOnUse" x="33" y="31" width="23" height="6">
<path d="M55.0601 36.41V35.67L48.6501 31.47L33.6801 35.42V36.41L48.0301 32.95L55.0601 36.41Z" fill="white"/>
</mask>
<g mask="url(#mask6_34_2)">
<path d="M55.0701 31.46H33.6801V36.41H55.0701V31.46Z" fill="url(#paint6_linear_34_2)"/>
</g>
<mask id="mask7_34_2" style="mask-type:luminance" maskUnits="userSpaceOnUse" x="55" y="13" width="16" height="8">
<path d="M69.18 16.81V17.81L65.63 13.59L55.88 19.34V20.65L65.55 15.36L70.16 20.45V17.69L69.18 16.81Z" fill="white"/>
</mask>
<g mask="url(#mask7_34_2)">
<path d="M70.16 13.59H55.88V20.64H70.16V13.59Z" fill="url(#paint7_linear_34_2)"/>
</g>
<mask id="mask8_34_2" style="mask-type:luminance" maskUnits="userSpaceOnUse" x="55" y="17" width="16" height="7">
<path d="M55.88 22.03L65.71 17.12L70.16 22.09V23.17L65.55 18.58L55.87 23.33L55.88 22.03Z" fill="white"/>
</mask>
<g mask="url(#mask8_34_2)">
<path d="M70.17 17.12H55.88V23.33H70.17V17.12Z" fill="url(#paint8_linear_34_2)"/>
</g>
<mask id="mask9_34_2" style="mask-type:luminance" maskUnits="userSpaceOnUse" x="55" y="20" width="16" height="6">
<path d="M70.16 25.02L65.88 20.26L55.88 24.71V25.71L65.55 21.72L70.16 25.71V25.02Z" fill="white"/>
</mask>
<g mask="url(#mask9_34_2)">
<path d="M70.16 20.26H55.88V25.7H70.16V20.26Z" fill="url(#paint9_linear_34_2)"/>
</g>
<mask id="mask10_34_2" style="mask-type:luminance" maskUnits="userSpaceOnUse" x="55" y="23" width="16" height="6">
<path d="M70.19 28.24V27.47L65.71 23.33L55.88 27.39V28.24L65.55 24.86L70.19 28.24Z" fill="white"/>
</mask>
<g mask="url(#mask10_34_2)">
<path d="M70.19 23.33H55.88V28.24H70.19V23.33Z" fill="url(#paint10_linear_34_2)"/>
</g>
<mask id="mask11_34_2" style="mask-type:luminance" maskUnits="userSpaceOnUse" x="55" y="25" width="16" height="6">
<path d="M70.16 30.23L65.71 25.78L55.88 30V30.92L65.55 27.32L70.17 30.61L70.16 30.23Z" fill="white"/>
</mask>
<g mask="url(#mask11_34_2)">
<path d="M70.17 25.78H55.88V30.92H70.17V25.78Z" fill="url(#paint11_linear_34_2)"/>
</g>
<mask id="mask12_34_2" style="mask-type:luminance" maskUnits="userSpaceOnUse" x="55" y="29" width="16" height="5">
<path d="M70.19 33.45V32.68L65.71 29.08L55.88 32.68V33.45L65.63 30.61L70.19 33.45Z" fill="white"/>
</mask>
<g mask="url(#mask12_34_2)">
<path d="M70.19 29.08H55.88V33.45H70.19V29.08Z" fill="url(#paint12_linear_34_2)"/>
</g>
<mask id="mask13_34_2" style="mask-type:luminance" maskUnits="userSpaceOnUse" x="55" y="32" width="16" height="4">
<path d="M70.16 35.98V35.52L65.88 32.91L55.88 35.37V35.98L65.46 33.83L70.16 35.98Z" fill="white"/>
</mask>
<g mask="url(#mask13_34_2)">
<path d="M70.16 32.91H55.88V35.98H70.16V32.91Z" fill="url(#paint13_linear_34_2)"/>
</g>
<path d="M89.63 38.76V45.7H87.51V43.02H82.73V45.7H80.61V38.76H82.73V41.3H87.51V38.76H89.63ZM78.98 43.36C79.0217 43.6937 78.9973 44.0324 78.9081 44.3567C78.8188 44.681 78.6666 44.9846 78.46 45.25C77.8414 45.6418 77.1077 45.8112 76.38 45.73H74.77H73.46C72.5274 45.8448 71.5827 45.6517 70.77 45.18C70.5553 44.9573 70.3907 44.6914 70.2873 44.3999C70.1838 44.1084 70.1438 43.7982 70.17 43.49L70.11 42.03C70.0471 41.17 70.2199 40.3091 70.61 39.54C70.8487 39.2486 71.1573 39.0224 71.507 38.8825C71.8567 38.7426 72.2362 38.6936 72.61 38.74H74.61H76.04C76.4911 38.7413 76.9419 38.768 77.39 38.82C77.6256 38.8335 77.8541 38.9054 78.0549 39.0294C78.2557 39.1534 78.4224 39.3254 78.54 39.53C78.7964 40.0623 78.9166 40.6498 78.89 41.24H76.89C76.904 41.1213 76.8906 41.0009 76.8507 40.8882C76.8108 40.7755 76.7456 40.6735 76.66 40.59C76.432 40.4613 76.1712 40.4022 75.91 40.42H73.66C73.0333 40.42 72.6433 40.54 72.49 40.78C72.3061 41.2368 72.2241 41.7282 72.25 42.22C72.2002 42.73 72.2865 43.2441 72.5 43.71C72.67 43.95 73.11 44.06 73.83 44.06H75.74C76.0499 44.0867 76.3612 44.0279 76.64 43.89C76.82 43.77 76.91 43.49 76.91 43.06H78.98V43.36ZM66.31 45.7V38.76H68.42V45.7H66.31ZM61.37 42.24C61.6805 42.2828 61.9965 42.2231 62.27 42.07C62.4134 41.8257 62.4731 41.5413 62.44 41.26C62.4504 41.087 62.4266 40.9138 62.37 40.75C62.3423 40.694 62.3031 40.6445 62.2548 40.6048C62.2065 40.5652 62.1503 40.5363 62.09 40.52L61.75 40.44H57.91V42.24H61.37ZM62.25 38.76C62.8838 38.6943 63.5191 38.8692 64.03 39.25C64.2238 39.4289 64.3655 39.657 64.44 39.91C64.5336 40.2383 64.5775 40.5787 64.57 40.92V41.03C64.5939 41.2727 64.5939 41.5172 64.57 41.76C64.5425 41.9538 64.4707 42.1386 64.36 42.3C64.2693 42.4488 64.1463 42.5753 64 42.67C63.7175 42.8018 63.4269 42.9153 63.13 43.01C63.5082 43.0379 63.873 43.1618 64.19 43.37C64.3223 43.4979 64.4228 43.6549 64.4835 43.8285C64.5443 44.0021 64.5636 44.1876 64.54 44.37V45.7H62.35V45.04C62.357 44.7672 62.3267 44.4946 62.26 44.23C62.2 44.03 61.93 43.93 61.43 43.93H57.91V45.7H55.8V38.76H62.25ZM52 42.28V42.21C52.0396 41.7348 51.9606 41.2571 51.77 40.82C51.62 40.59 51.21 40.47 50.54 40.47H46.95V44H50.51C51.16 44 51.51 43.88 51.74 43.64C51.9499 43.2192 52.0399 42.7486 52 42.28ZM51 38.76C51.887 38.6602 52.7806 38.88 53.52 39.38C54.0438 40.1017 54.276 40.9945 54.17 41.88V43.26C54.1677 43.2966 54.1677 43.3334 54.17 43.37C54.1584 43.6455 54.1249 43.9197 54.07 44.19C53.9657 44.6054 53.7039 44.9641 53.34 45.19C52.8932 45.5136 52.3513 45.679 51.8 45.66H44.9V38.76H51ZM39.71 45.7L35.53 40.49V45.7H33.53V38.76H36.89L41.05 43.92V38.72H43.05V45.66L39.71 45.7ZM25.58 43H28.58L27.09 40.26L25.58 43ZM24.15 45.7H21.8L25.67 38.76H28.52L32.31 45.7H29.98L29.32 44.44H24.84L24.15 45.7ZM21.15 43.96V45.7H14.25V38.76H16.36V43.92L21.15 43.96Z" fill="#120035"/>
<path d="M101.85 51.38V50.43H102.85V51.38H101.85ZM100.09 49.7C100.108 49.4678 100.07 49.2346 99.9799 49.02C99.8999 48.9 99.6999 48.84 99.3799 48.84H97.6199V50.58H99.3599C99.6799 50.58 99.8799 50.52 99.9599 50.4C100.074 50.1856 100.12 49.9411 100.09 49.7ZM99.5799 47.98C100.016 47.9307 100.455 48.0369 100.82 48.28C101.077 48.6354 101.191 49.0744 101.14 49.51V50.19C101.132 50.3242 101.115 50.4578 101.09 50.59C101.037 50.7987 100.909 50.9804 100.73 51.1C100.509 51.2586 100.242 51.3395 99.9699 51.33H96.5899V47.93L99.5799 47.98ZM93.4399 51.38V48.83H91.9199V47.98H95.9999V48.83H94.4799V51.38H93.4399ZM91.6599 50.53V51.38H88.2499V47.98H89.2499V50.53H91.6599ZM86.4499 47.98L84.5299 50.2V51.38H83.5299V50.2L81.5299 47.98H82.8399L83.9999 49.38L85.1399 47.98H86.4499ZM79.3499 51.38L77.2999 48.82V51.38H76.2999V47.98H77.9499L79.9999 50.53V47.98H80.9999V51.38H79.3499ZM72.4099 50.06H73.8699L73.1399 48.71L72.4099 50.06ZM71.7099 51.38H70.5599L72.4599 47.98H73.8599L75.7099 51.38H74.5699L74.2499 50.76H72.0499L71.7099 51.38ZM69.0499 49.27C69.0583 49.2018 69.0519 49.1325 69.0312 49.0669C69.0105 49.0014 68.976 48.941 68.9299 48.89C68.799 48.8172 68.6491 48.7858 68.4999 48.8H67.0099V49.71H68.5199C68.6626 49.722 68.8055 49.6906 68.9299 49.62C69.0099 49.57 69.0499 49.45 69.0499 49.27ZM68.7299 47.98C69.103 47.9447 69.4777 48.0287 69.7999 48.22C69.9169 48.3566 70.004 48.5161 70.0556 48.6883C70.1073 48.8605 70.1224 49.0416 70.0999 49.22C70.1274 49.569 70.0472 49.9181 69.8699 50.22C69.7335 50.3368 69.5738 50.4231 69.4013 50.4731C69.2288 50.5231 69.0477 50.5357 68.8699 50.51H66.9899V51.36H65.9899V47.96L68.7299 47.98ZM64.1099 51.38V48.79L62.6099 51.38H61.7699L60.2499 48.79V51.38H59.2499V47.98H60.8999L62.2499 50.23L63.4899 47.98H65.1299V51.38H64.1099ZM55.5299 50.58H56.6199C56.8338 50.5922 57.048 50.5616 57.2499 50.49C57.3799 50.43 57.4399 50.27 57.4399 50.02V49.56C57.4399 49.4 57.4399 49.27 57.4399 49.16C57.4319 49.0648 57.3892 48.9758 57.3199 48.91C57.2502 48.8495 57.1622 48.8142 57.0699 48.81H56.8199H55.6699C55.4872 48.8002 55.3042 48.8239 55.1299 48.88C55.0684 48.9054 55.0158 48.9484 54.9784 49.0035C54.9411 49.0586 54.9208 49.1234 54.9199 49.19V49.58V49.81C54.904 50.0291 54.9417 50.2488 55.0299 50.45C55.0599 50.53 55.2499 50.58 55.5299 50.58ZM56.0999 47.94H56.9199C57.3598 47.8972 57.8011 48.0066 58.1699 48.25C58.3013 48.4184 58.3981 48.6111 58.4548 48.817C58.5114 49.023 58.5268 49.2381 58.4999 49.45V49.61C58.5503 50.1006 58.4637 50.5956 58.2499 51.04C58.0699 51.28 57.6199 51.4 56.8999 51.4H56.1199H55.7899H55.0899C54.7643 51.4196 54.4422 51.324 54.1799 51.13C54.0642 51.0187 53.9752 50.8825 53.9198 50.7318C53.8644 50.5811 53.8439 50.4198 53.8599 50.26V49.63C53.8092 49.1597 53.9034 48.6852 54.1299 48.27C54.2999 48.06 54.7199 47.95 55.3899 47.95L56.0999 47.94ZM53.0999 50.23C53.1218 50.3938 53.111 50.5604 53.0681 50.72C53.0252 50.8797 52.951 51.0292 52.8499 51.16C52.554 51.3522 52.2009 51.4369 51.8499 51.4H51.0599H50.4099C49.9524 51.4537 49.4896 51.3591 49.0899 51.13C48.9863 51.0175 48.9071 50.8848 48.8572 50.7403C48.8073 50.5957 48.7878 50.4424 48.7999 50.29V49.58C48.769 49.158 48.8555 48.7358 49.0499 48.36C49.1688 48.2142 49.3234 48.1017 49.4986 48.0334C49.6738 47.965 49.8638 47.9432 50.0499 47.97H51.0499H51.7499C51.9698 47.958 52.1901 47.958 52.4099 47.97C52.526 47.973 52.6392 48.007 52.7377 48.0686C52.8362 48.1301 52.9164 48.2169 52.9699 48.32C53.0988 48.5768 53.1574 48.8632 53.1399 49.15H52.1399C52.1472 49.0924 52.14 49.0339 52.1191 48.9798C52.0981 48.9257 52.0641 48.8777 52.0199 48.84C51.9137 48.7699 51.7867 48.7382 51.6599 48.75H50.5599C50.2499 48.75 50.0499 48.81 49.9799 48.93C49.8925 49.1593 49.8583 49.4055 49.8799 49.65C49.8557 49.8996 49.897 50.1513 49.9999 50.38C50.0799 50.5 50.2999 50.56 50.6499 50.56H51.5899C51.7421 50.571 51.8943 50.5399 52.0299 50.47C52.1199 50.41 52.1599 50.28 52.1599 50.06H53.1599L53.0999 50.23ZM45.6699 49.7C45.688 49.4678 45.6503 49.2346 45.5599 49.02C45.4899 48.9 45.2799 48.84 44.9599 48.84H43.1999V50.58H44.9399C45.2599 50.58 45.4599 50.52 45.5399 50.4C45.6509 50.1845 45.6928 49.9401 45.6599 49.7H45.6699ZM45.1599 47.98C45.5957 47.9307 46.0349 48.0369 46.3999 48.28C46.657 48.6354 46.7712 49.0744 46.7199 49.51V50.19C46.7283 50.3232 46.7283 50.4568 46.7199 50.59C46.6672 50.7987 46.5389 50.9804 46.3599 51.1C46.139 51.2586 45.8717 51.3395 45.5999 51.33H42.1499V47.93L45.1599 47.98ZM41.3899 47.98V48.75H38.6299V49.33H41.2499V50.01H38.6699V50.61H41.4299V51.38H37.6399V47.98H41.3899ZM34.4599 51.38V48.83H32.9399V47.98H37.0099V48.83H35.4999V51.38H34.4599ZM29.3399 50.06H30.7999L30.0699 48.71L29.3399 50.06ZM28.6399 51.38H27.4799L29.3799 47.98H30.7799L32.6399 51.38H31.4999L31.1699 50.76H28.9699L28.6399 51.38ZM25.3299 49.69C25.4825 49.7091 25.6371 49.6775 25.7699 49.6C25.8299 49.54 25.8499 49.41 25.8499 49.2C25.8636 49.1172 25.8636 49.0328 25.8499 48.95C25.8351 48.9233 25.8151 48.8998 25.791 48.8809C25.767 48.862 25.7394 48.8481 25.7099 48.84H25.5399H23.6599V49.73H25.3599L25.3299 49.69ZM25.7599 47.98C26.0727 47.9502 26.3856 48.0355 26.6399 48.22C26.7322 48.3066 26.7981 48.4175 26.8299 48.54C26.8832 48.708 26.9069 48.8839 26.8999 49.06C26.9061 49.1799 26.9061 49.3001 26.8999 49.42C26.8798 49.5128 26.8425 49.601 26.7899 49.68C26.7432 49.7547 26.682 49.8193 26.6099 49.87L26.1899 50.03C26.3758 50.0445 26.5549 50.1065 26.7099 50.21C26.7715 50.2707 26.8187 50.3444 26.8482 50.4257C26.8776 50.5071 26.8884 50.5939 26.8799 50.68V51.33H25.8799V51.01C25.8933 50.877 25.8933 50.743 25.8799 50.61C25.8799 50.51 25.7099 50.46 25.4699 50.46H23.7399V51.33H22.7399V47.93L25.7599 47.98ZM21.7599 49.46V50.18C21.7857 50.5054 21.7088 50.8306 21.5399 51.11C21.4368 51.2274 21.3059 51.3173 21.1592 51.3714C21.0125 51.4256 20.8547 51.4422 20.6999 51.42H18.9999C18.6913 51.4251 18.383 51.3983 18.0799 51.34C17.8604 51.2935 17.665 51.1692 17.5299 50.99C17.3717 50.7434 17.298 50.4521 17.3199 50.16V49.73C17.2826 49.2561 17.3687 48.7807 17.5699 48.35C17.7299 48.09 18.1199 47.97 18.7199 47.97H19.4999H19.7899H20.4799C20.8294 47.9355 21.1806 48.0163 21.4799 48.2C21.5975 48.3114 21.6862 48.4497 21.7384 48.603C21.7907 48.7563 21.8049 48.92 21.7799 49.08V49.14H20.7799C20.7904 49.0737 20.7904 49.0062 20.7799 48.94C20.7693 48.9139 20.7531 48.8905 20.7323 48.8715C20.7116 48.8525 20.6868 48.8383 20.6599 48.83H20.4499H20.1999H18.9899C18.7499 48.83 18.5899 48.89 18.5299 49.01C18.4499 49.2028 18.4156 49.4117 18.4299 49.62V49.92C18.4192 50.098 18.45 50.276 18.5199 50.44C18.5462 50.494 18.5856 50.5407 18.6345 50.5756C18.6834 50.6105 18.7403 50.6327 18.7999 50.64H19.0799H20.2499C20.3923 50.648 20.5341 50.6169 20.6599 50.55C20.7127 50.5139 20.7545 50.4641 20.781 50.4059C20.8074 50.3477 20.8174 50.2835 20.8099 50.22V50.12H19.4899V49.48L21.7599 49.46ZM16.6199 47.98V48.75H13.8499V49.33H16.4299V50.01H13.8499V50.61H16.6199V51.38H12.8199V47.98H16.6199ZM9.67994 51.38V48.83H8.15994V47.98H12.2499V48.83H10.7299V51.38H9.67994ZM5.93994 51.38L3.87994 48.82V51.38H2.87994V47.98H4.52994L6.57994 50.53V47.98H7.57994V51.38H5.93994ZM0.939941 51.38V47.98H1.93994V51.38H0.939941Z" fill="#120035"/>
<defs>
<linearGradient id="paint0_linear_34_2" x1="30.1801" y1="8.17001" x2="52.7901" y2="4.68001" gradientUnits="userSpaceOnUse">
<stop stop-color="#DDA517"/>
<stop offset="0.31" stop-color="#B57A11"/>
<stop offset="0.68" stop-color="#FCD649"/>
<stop offset="1" stop-color="#EBCB34"/>
</linearGradient>
<linearGradient id="paint1_linear_34_2" x1="33.67" y1="10.99" x2="55.07" y2="10.99" gradientUnits="userSpaceOnUse">
<stop stop-color="#DDA517"/>
<stop offset="0.31" stop-color="#B57A11"/>
<stop offset="0.68" stop-color="#FCD649"/>
<stop offset="1" stop-color="#EBCB34"/>
</linearGradient>
<linearGradient id="paint2_linear_34_2" x1="33.6801" y1="15.44" x2="55.0701" y2="15.44" gradientUnits="userSpaceOnUse">
<stop stop-color="#DDA517"/>
<stop offset="0.31" stop-color="#B57A11"/>
<stop offset="0.68" stop-color="#FCD649"/>
<stop offset="1" stop-color="#EBCB34"/>
</linearGradient>
<linearGradient id="paint3_linear_34_2" x1="33.6801" y1="19.96" x2="55.1101" y2="19.96" gradientUnits="userSpaceOnUse">
<stop stop-color="#DDA517"/>
<stop offset="0.31" stop-color="#B57A11"/>
<stop offset="0.68" stop-color="#FCD649"/>
<stop offset="1" stop-color="#EBCB34"/>
</linearGradient>
<linearGradient id="paint4_linear_34_2" x1="33.6801" y1="24.1" x2="55.0701" y2="24.1" gradientUnits="userSpaceOnUse">
<stop stop-color="#DDA517"/>
<stop offset="0.31" stop-color="#B57A11"/>
<stop offset="0.68" stop-color="#FCD649"/>
<stop offset="1" stop-color="#EBCB34"/>
</linearGradient>
<linearGradient id="paint5_linear_34_2" x1="33.6801" y1="28.8" x2="55.1101" y2="28.8" gradientUnits="userSpaceOnUse">
<stop stop-color="#DDA517"/>
<stop offset="0.31" stop-color="#B57A11"/>
<stop offset="0.68" stop-color="#FCD649"/>
<stop offset="1" stop-color="#EBCB34"/>
</linearGradient>
<linearGradient id="paint6_linear_34_2" x1="33.6801" y1="33.94" x2="55.0701" y2="33.94" gradientUnits="userSpaceOnUse">
<stop stop-color="#DDA517"/>
<stop offset="0.31" stop-color="#B57A11"/>
<stop offset="0.68" stop-color="#FCD649"/>
<stop offset="1" stop-color="#EBCB34"/>
</linearGradient>
<linearGradient id="paint7_linear_34_2" x1="56.88" y1="18.08" x2="69.17" y2="16.15" gradientUnits="userSpaceOnUse">
<stop stop-color="#DDA517"/>
<stop offset="0.31" stop-color="#B57A11"/>
<stop offset="0.68" stop-color="#FCD649"/>
<stop offset="1" stop-color="#EBCB34"/>
</linearGradient>
<linearGradient id="paint8_linear_34_2" x1="55.88" y1="20.22" x2="70.16" y2="20.22" gradientUnits="userSpaceOnUse">
<stop stop-color="#DDA517"/>
<stop offset="0.31" stop-color="#B57A11"/>
<stop offset="0.68" stop-color="#FCD649"/>
<stop offset="1" stop-color="#EBCB34"/>
</linearGradient>
<linearGradient id="paint9_linear_34_2" x1="55.88" y1="22.98" x2="70.16" y2="22.98" gradientUnits="userSpaceOnUse">
<stop stop-color="#DDA517"/>
<stop offset="0.31" stop-color="#B57A11"/>
<stop offset="0.68" stop-color="#FCD649"/>
<stop offset="1" stop-color="#EBCB34"/>
</linearGradient>
<linearGradient id="paint10_linear_34_2" x1="55.88" y1="25.78" x2="70.19" y2="25.78" gradientUnits="userSpaceOnUse">
<stop stop-color="#DDA517"/>
<stop offset="0.31" stop-color="#B57A11"/>
<stop offset="0.68" stop-color="#FCD649"/>
<stop offset="1" stop-color="#EBCB34"/>
</linearGradient>
<linearGradient id="paint11_linear_34_2" x1="55.88" y1="28.35" x2="70.17" y2="28.35" gradientUnits="userSpaceOnUse">
<stop stop-color="#DDA517"/>
<stop offset="0.31" stop-color="#B57A11"/>
<stop offset="0.68" stop-color="#FCD649"/>
<stop offset="1" stop-color="#EBCB34"/>
</linearGradient>
<linearGradient id="paint12_linear_34_2" x1="55.88" y1="31.26" x2="70.19" y2="31.26" gradientUnits="userSpaceOnUse">
<stop stop-color="#DDA517"/>
<stop offset="0.31" stop-color="#B57A11"/>
<stop offset="0.68" stop-color="#FCD649"/>
<stop offset="1" stop-color="#EBCB34"/>
</linearGradient>
<linearGradient id="paint13_linear_34_2" x1="55.88" y1="34.44" x2="70.16" y2="34.44" gradientUnits="userSpaceOnUse">
<stop stop-color="#DDA517"/>
<stop offset="0.31" stop-color="#B57A11"/>
<stop offset="0.68" stop-color="#FCD649"/>
<stop offset="1" stop-color="#EBCB34"/>
</linearGradient>
</defs>
</svg>
